<svg width="920" height="860" viewBox="0 0 920 860" fill="none" xmlns="http://www.w3.org/2000/svg">
  <rect width="920" height="860" rx="48" fill="#050505"/>
  <rect x="54" y="62" width="812" height="736" rx="40" fill="url(#panel)"/>
  <rect x="96" y="110" width="728" height="648" rx="34" fill="#0E0E0E" stroke="rgba(255,255,255,0.08)"/>
  <ellipse cx="468" cy="700" rx="230" ry="42" fill="url(#glow)" opacity="0.6"/>
  <path d="M178 590C250 486 314 426 400 378C471 338 557 312 682 272" stroke="url(#line1)" stroke-width="16" stroke-linecap="round"/>
  <path d="M228 650C314 554 371 504 445 462C518 421 609 386 744 350" stroke="url(#line2)" stroke-width="12" stroke-linecap="round" opacity="0.88"/>
  <path d="M176 420C270 446 344 442 411 410C473 381 555 310 656 214" stroke="url(#line3)" stroke-width="10" stroke-linecap="round" opacity="0.92"/>
  <rect x="204" y="240" width="118" height="236" rx="22" fill="#161616" stroke="rgba(255,255,255,0.08)"/>
  <rect x="346" y="180" width="136" height="296" rx="22" fill="#181818" stroke="rgba(255,255,255,0.08)"/>
  <rect x="512" y="128" width="168" height="348" rx="26" fill="#1A1A1A" stroke="rgba(255,255,255,0.08)"/>
  <rect x="712" y="258" width="76" height="218" rx="18" fill="#141414" stroke="rgba(255,255,255,0.08)"/>
  <rect x="228" y="268" width="26" height="164" rx="8" fill="#72F4D0" opacity="0.9"/>
  <rect x="381" y="214" width="32" height="190" rx="10" fill="#F2F2EE" opacity="0.92"/>
  <rect x="558" y="164" width="40" height="232" rx="12" fill="#7BA7FF" opacity="0.95"/>
  <circle cx="598" cy="230" r="92" fill="url(#halo)" opacity="0.7"/>
  <circle cx="598" cy="230" r="8" fill="#F4F4EF"/>
  <circle cx="413" cy="397" r="7" fill="#72F4D0"/>
  <circle cx="706" cy="283" r="7" fill="#FFB054"/>
  <circle cx="266" cy="470" r="7" fill="#7BA7FF"/>
  <rect x="184" y="540" width="552" height="96" rx="24" fill="rgba(255,255,255,0.03)" stroke="rgba(255,255,255,0.08)"/>
  <text x="216" y="580" fill="#F5F5F2" font-family="Arial, sans-serif" font-size="28" font-weight="700">Trusted city-service coverage</text>
  <text x="216" y="618" fill="#A2A29D" font-family="Arial, sans-serif" font-size="22">Civil registration, bills, transport, telecom help, emergency contacts, licensing, and public services.</text>
  <defs>
    <linearGradient id="panel" x1="98" y1="90" x2="792" y2="760" gradientUnits="userSpaceOnUse">
      <stop stop-color="#0B1113"/>
      <stop offset="1" stop-color="#080808"/>
    </linearGradient>
    <linearGradient id="line1" x1="178" y1="590" x2="682" y2="272" gradientUnits="userSpaceOnUse">
      <stop stop-color="#45F1C0"/>
      <stop offset="0.48" stop-color="#F5F5F2"/>
      <stop offset="1" stop-color="#6C94FF"/>
    </linearGradient>
    <linearGradient id="line2" x1="228" y1="650" x2="744" y2="350" gradientUnits="userSpaceOnUse">
      <stop stop-color="#6CF2D3"/>
      <stop offset="0.54" stop-color="#FFE074"/>
      <stop offset="1" stop-color="#5D88FF"/>
    </linearGradient>
    <linearGradient id="line3" x1="176" y1="420" x2="656" y2="214" gradientUnits="userSpaceOnUse">
      <stop stop-color="#80F0C9"/>
      <stop offset="1" stop-color="#F5F5F2"/>
    </linearGradient>
    <radialGradient id="halo" cx="0" cy="0" r="1" gradientUnits="userSpaceOnUse" gradientTransform="translate(598 230) rotate(90) scale(92)">
      <stop stop-color="#73F2D0"/>
      <stop offset="1" stop-color="#73F2D0" stop-opacity="0"/>
    </radialGradient>
    <radialGradient id="glow" cx="0" cy="0" r="1" gradientUnits="userSpaceOnUse" gradientTransform="translate(468 700) rotate(90) scale(42 230)">
      <stop stop-color="#4BFFF0"/>
      <stop offset="1" stop-color="#4BFFF0" stop-opacity="0"/>
    </radialGradient>
  </defs>
</svg>
